<svg id="visual" viewBox="0 0 960 540" width="960" height="540" xmlns="http://www.w3.org/2000/svg" xmlns:xlink="http://www.w3.org/1999/xlink" version="1.1"><rect x="0" y="0" width="960" height="540" fill="#FFF3E6"></rect><g transform="translate(446.764229596916 316.35902990562244)"><path d="M109.1 -179.4C167.5 -155.2 259.1 -178.8 309.3 -156.9C359.5 -135 368.2 -67.5 364.8 -2C361.3 63.5 345.6 127 300.6 157.7C255.5 188.5 181 186.5 126 186.2C71 186 35.5 187.5 0.3 186.9C-34.8 186.3 -69.7 183.7 -114 177.7C-158.3 171.8 -212.1 162.7 -243.3 132.5C-274.6 102.3 -283.3 51.2 -291.7 -4.8C-300 -60.8 -308.1 -121.7 -274.2 -147.4C-240.4 -173.1 -164.7 -163.6 -112 -191.2C-59.3 -218.8 -29.7 -283.4 -2.2 -279.6C25.3 -275.8 50.6 -203.7 109.1 -179.4" fill="#A45A3F"></path></g></svg>